<?xml version="1.0" encoding="utf-8"?>
<!-- Generator: Adobe Illustrator 21.0.2, SVG Export Plug-In . SVG Version: 6.00 Build 0)  -->
<svg version="1.1" id="Layer_1" xmlns="http://www.w3.org/2000/svg" xmlns:xlink="http://www.w3.org/1999/xlink" x="0px" y="0px"
	 viewBox="0 0 1083.4 427.6" style="enable-background:new 0 0 1083.4 427.6;" xml:space="preserve">
<style type="text/css">
	.st0{fill:none;stroke:#10DDB5;stroke-width:5;stroke-linecap:round;stroke-linejoin:round;stroke-miterlimit:10;}
	.st1{fill:none;stroke:#10DDB5;stroke-width:9;stroke-linecap:round;stroke-linejoin:round;stroke-miterlimit:10;}
</style>
<line class="st0" x1="162.6" y1="194.6" x2="262.7" y2="40.5"/>
<line class="st0" x1="158.8" y1="253.4" x2="205.8" y2="181.1"/>
<line class="st0" x1="213.3" y1="170.6" x2="269.2" y2="84.6"/>
<line class="st0" x1="182.4" y1="111.2" x2="218.7" y2="55.3"/>
<line class="st0" x1="227.9" y1="254.9" x2="327.9" y2="100.8"/>
<line class="st0" x1="224.1" y1="313.7" x2="271.1" y2="241.4"/>
<line class="st0" x1="278.6" y1="231" x2="334.5" y2="144.9"/>
<line class="st0" x1="247.7" y1="171.5" x2="284" y2="115.6"/>
<line class="st0" x1="315.5" y1="281.7" x2="415.6" y2="127.6"/>
<line class="st0" x1="311.7" y1="340.5" x2="358.7" y2="268.2"/>
<line class="st0" x1="366.3" y1="257.7" x2="422.2" y2="171.7"/>
<line class="st0" x1="335.3" y1="198.3" x2="371.6" y2="142.4"/>
<line class="st0" x1="380.8" y1="342" x2="480.9" y2="187.9"/>
<line class="st0" x1="377" y1="400.8" x2="424" y2="328.5"/>
<line class="st0" x1="431.5" y1="318" x2="487.4" y2="232"/>
<line class="st0" x1="400.6" y1="258.6" x2="436.9" y2="202.7"/>
<line class="st0" x1="669.5" y1="209.3" x2="767.5" y2="58.5"/>
<line class="st0" x1="665.8" y1="266.9" x2="711.8" y2="196.1"/>
<line class="st0" x1="719.2" y1="185.9" x2="773.9" y2="101.7"/>
<line class="st0" x1="733.4" y1="268.4" x2="831.4" y2="117.6"/>
<line class="st0" x1="729.7" y1="325.9" x2="775.7" y2="255.2"/>
<line class="st0" x1="783.1" y1="244.9" x2="837.8" y2="160.7"/>
<line class="st0" x1="752.8" y1="186.8" x2="788.3" y2="132"/>
<line class="st0" x1="819.2" y1="294.6" x2="917.2" y2="143.8"/>
<line class="st0" x1="815.5" y1="352.1" x2="861.5" y2="281.4"/>
<line class="st0" x1="868.9" y1="271.1" x2="923.6" y2="186.9"/>
<line class="st0" x1="838.6" y1="213" x2="874.1" y2="158.2"/>
<line class="st0" x1="829.8" y1="383.9" x2="938" y2="217.3"/>
<rect x="151" y="118.1" class="st1" width="781.4" height="159.9"/>
</svg>
